<svg width="412" height="412" viewBox="0 0 412 412" fill="none" xmlns="http://www.w3.org/2000/svg">
<mask id="path-1-inside-1_3_2892" fill="white">
<path d="M116.729 16.9634L119.736 17.9807C121.266 17.5107 122.645 17.1646 124.248 17.5057C134.355 19.6577 131.213 25.1124 134.836 28.048C138.074 30.6711 140.329 28.6329 143.15 32.8931C146.264 34.1228 149.021 33.1662 152.123 34.3387C153.53 33.9836 155.084 33.885 156.433 33.3516C158.774 32.4252 161.06 30.251 163.319 28.9799C165.103 27.9763 167.829 26.3313 169.936 26.9227C170.523 27.5261 170.545 27.6462 170.702 28.4809C171.162 29.0348 171.275 29.0561 171.93 29.2736C172.488 28.6136 172.424 26.5185 172.71 25.5266C174.603 24.7749 176.387 27.5257 178.115 27.6942C179.044 27.7846 179.69 27.4686 180.684 27.7525C182.086 29.301 180.839 30.3066 180.886 32.0266C180.903 32.6673 181.028 32.7084 181.488 33.0826C182.087 33.0739 182.697 33.037 183.28 33.1954C183.785 33.3323 183.768 33.5566 184.023 33.9867C184.037 34.2825 184.05 34.5166 183.944 34.7997C183.259 36.6217 181.132 38.5583 179.899 40.0614C175.616 45.2846 174.675 48.4237 167.963 51.2228C168.218 52.1225 168.439 52.9987 168.881 53.8296C169.044 53.9237 169.206 54.0201 169.366 54.1189C171.068 55.1653 172.174 56.8644 172.639 58.8077C171.93 59.0732 171.334 59.2254 170.874 59.8555L171 60.641C172.274 62.3859 173.563 61.6497 175.196 62.5517C175.504 62.7214 175.682 62.8542 175.779 63.1979C176.094 64.3047 175.373 65.5294 174.849 66.462C173.689 68.5253 174.936 71.1345 173.62 73.0822C172.285 75.0577 170.203 72.2289 168.452 72.4215C167.916 72.805 167.578 73.1602 167.182 73.6877L167.05 73.8663C165.867 74.3263 164.539 73.8265 163.306 73.7022C162.135 73.5844 161.519 73.866 160.615 74.6107C160.347 74.8321 160.317 74.7846 159.983 74.8092C159.792 74.1683 159.585 73.6786 159.229 73.1104L158.773 73.1358C158.65 73.3499 158.542 73.5316 158.505 73.78C158.359 74.7548 158.788 75.4992 159.148 76.3561C162.24 83.7141 167.525 82.4943 169.912 85.7835C171.077 87.3893 171.822 90.4515 171.528 92.4258C171.182 94.7457 169.951 95.8634 168.188 97.2572C168.412 97.5226 168.642 97.7823 168.878 98.0366C169.489 98.6912 174.395 102.89 174.962 103.12C175.061 103.16 175.754 103.171 175.868 103.145C176.85 102.927 177.129 102.204 178.293 102.247C179.842 103.341 180.48 105.422 181.1 107.127C181.908 106.55 182.613 106.018 183.571 105.71L183.928 106.079C183.876 106.584 183.809 107.019 183.975 107.512C184.101 107.885 184.286 107.886 184.607 108.063C184.719 107.999 184.83 107.933 184.943 107.871C186.389 107.075 186.444 108.646 187.531 108.994C188.126 109.184 188.884 109.074 189.551 109.284C189.788 110.247 189.103 111.011 188.783 111.953C188.926 112.221 189.044 112.35 189.306 112.51C191.14 113.622 191.049 111.836 192.475 111.585C193.533 111.399 196.561 113.117 197.443 113.759C197.994 114.16 198.316 114.389 198.384 115.098C198.656 117.961 195.779 119.041 194.347 120.992C192.846 123.036 193.723 125.032 191.344 127.964C192.991 129.926 194.498 131.463 196.683 132.85C200.005 134.958 213.558 140.916 217.222 141.477C218.328 141.646 219.454 141.353 220.53 141.112C220.599 141.168 220.667 141.225 220.737 141.281C223.307 143.298 226.803 149.486 229.562 150.37C230.018 149.81 230.328 149.55 230.962 149.205C232.207 149.008 233.274 149.737 234.36 150.278C235.146 149.436 236.159 148.041 237.277 147.691C239.514 146.992 239.1 148.516 240.578 149.335C241.738 149.253 242.662 148.568 243.66 148.032C244.663 147.493 245.165 147.368 246.241 147.696C246.815 148.575 246.684 149.975 246.732 151.006C248.583 152.256 250.431 153.569 252.491 154.454C255.792 155.872 260.259 156.152 263.615 154.801C264.37 155.188 265.179 155.64 266.008 155.842C268.09 156.348 269.576 155.868 271.341 154.755L275.972 157.909C277.627 157.02 279.096 155.812 280.589 154.678C280.556 154.635 280.522 154.592 280.491 154.547C278.033 150.988 280.772 150.442 280.972 147.901C281.069 146.672 278.97 144.967 278.139 144.145C277.883 142.435 277.559 140.742 277.23 139.045C278.017 137.032 279.908 131.146 281.84 130.242C282.317 130.018 282.584 130.104 283.047 130.294C285.594 131.341 284.291 134.302 285.472 135.982C286.144 136.939 287.238 137.065 287.784 138.256C287.949 140.764 286.87 141.28 285.922 143.248C284.954 145.259 286.325 147.871 287.075 149.781L286.919 149.676C288.117 150.734 289.439 152.131 290.888 152.826C293.549 154.104 300.124 154.359 302.845 153.146C303.866 152.692 305.295 151.221 306.321 151.151C307.319 151.083 308.445 152.269 309.592 152.304C313.559 152.426 311.7 151.68 313.434 150.117C314.79 149.835 316.054 150.406 317.381 150.647C319.083 150.957 320.737 150.132 322.065 149.139C323.316 148.204 326.43 145.507 326.531 143.866C326.559 143.403 326.442 143.426 326.157 143.113C324.571 142.664 323.722 142.954 322.23 143.473C320.371 142.503 318.017 142.36 316.319 141.204C315.599 140.713 315.329 140.271 315.136 139.437C315.217 138.609 315.426 138.022 316.001 137.401C316.979 136.346 318.769 135.549 320.234 135.562C321.067 135.569 321.711 136.192 322.29 136.715C323.397 136.446 324.507 136.182 325.597 135.862C327.633 135.267 330.603 132.616 331.625 130.778C331.427 130.428 331.271 130.082 331.122 129.711C331.645 127.869 332.485 127.382 334.071 126.507C336.119 125.377 336.227 122.857 338.501 121.963C340.207 121.291 341.904 122.328 343.172 121.869L343.397 121.241C343.102 120.667 342.81 120.092 342.52 119.514L342.77 118.819C344.025 117.796 345.091 117.908 346.612 117.928L347.634 116.669C348.612 116.297 353.319 115.82 354.14 116.354C354.631 116.672 355.033 117.712 355.681 117.837C356.534 118.003 356.679 116.967 358.268 117.588C361.193 116.283 362.368 111.651 365.337 110.293C366.56 110.724 367.059 111.805 368.129 112.544C368.769 112.277 369.348 112.089 370.032 111.95L370.495 112.353C370.386 112.68 370.266 112.949 370.302 113.301C370.334 113.616 370.934 113.925 371.191 114.116C371.111 114.829 370.64 115.313 370.068 115.758C369.915 115.879 369.763 116.003 369.614 116.135L369.384 116.345L369.348 116.304C370.161 117.349 371.066 118.824 372.185 119.514C372.712 119.484 373.295 119.411 373.81 119.528C374.49 119.683 374.518 120.005 374.836 120.565C374.486 121.722 373.396 122.129 372.889 123.248L373.138 123.895C374.965 125.225 375.436 123.905 377.282 123.723C378.236 124.35 378.699 125.584 379.362 126.493C380.907 128.617 382.529 127.1 384.593 127.544C385.474 127.733 385.868 128.279 386.295 129.022C385.643 130.555 383.446 132.528 382.123 133.541C383.853 136.272 384.858 140.321 386.037 143.363L385.824 143.248L386.11 143.682C385.937 144.035 385.611 144.308 385.341 144.591C383.498 144.757 382.34 142.813 380.899 141.822C379.073 141.973 378.493 144.065 376.767 144.452C374.764 143.593 375.979 142.29 375.065 140.852C374.993 140.739 374.913 140.632 374.832 140.522C373.504 142.722 370.921 143.427 369.304 145.328C367.96 146.906 367.059 149.4 365.984 151.206C364.697 153.38 363.059 155.436 361.587 157.498C362.991 159.375 362.524 163.004 362.404 165.263C362.355 166.154 361.225 167.443 360.593 168.054C360.67 170.008 361.048 173.065 359.833 174.689C359.825 174.777 359.833 174.865 359.813 174.951C359.547 176.061 357.873 177.254 357.004 177.926C357.128 178.086 357.248 178.249 357.366 178.414C358.058 179.384 358.505 180.289 358.3 181.494C358.413 181.941 358.433 182.371 358.332 182.823C357.733 185.566 355.129 191.4 352.736 192.845C351.967 192.443 351.098 191.978 350.245 191.815C349.304 191.636 348.326 192.19 347.626 192.769C343.977 195.78 351.496 199.436 350.965 202.684C350.764 203.926 349.267 204.773 348.318 205.437C349.098 206.519 350.056 208.862 349.955 210.166C349.396 211.003 348.889 211.158 348.012 211.607C346.785 212.239 346.62 213.684 345.61 214.631C345.755 214.841 345.892 215.055 346.004 215.282C346.652 216.559 347.215 218.376 346.721 219.769C346.479 220.454 345.908 221.255 345.216 221.534C344.765 221.715 344.741 221.582 344.335 221.394C343.554 220.215 343.57 218.635 343.136 217.285L343.047 217.025C342.363 217.046 341.289 217.176 340.673 216.844C337.539 215.149 339.237 211.468 338.332 208.942C338.287 208.819 338.235 208.7 338.187 208.58C338.183 208.522 338.183 208.465 338.175 208.408C338.066 207.828 337.539 207.27 337.306 206.704C336.336 204.347 335.258 201.325 334.638 198.851C334.288 197.46 335.044 196 334.505 194.752C333.942 194.321 333.85 194.235 333.113 194.155C330.852 195.999 331.347 201.593 330.059 204.296C329.733 204.987 329.234 205.672 328.458 205.879C327.645 206.096 326.659 205.838 325.943 205.438C324.322 204.532 320.632 197.862 320.17 195.873C319.997 195.119 320.339 194.434 320.785 193.83C323.453 190.209 331.335 185.05 335.016 181.361C335.873 180.504 335.129 179.706 336.002 178.84C337.805 177.053 340.48 175.883 341.764 173.592C342.134 172.926 342.387 172.238 342.174 171.488C341.184 171.582 339.756 172.96 338.794 173.459L338.585 173.564C333.093 173.266 326.7 172.791 321.501 174.714C320.95 173.783 319.796 173.321 318.854 172.899C315.003 173.922 308.755 174.785 304.921 173.276C304.341 173.048 304.301 172.974 304.068 172.412L305.404 170.635C300.439 160.19 297.058 167.969 291.496 163.185C287.849 160.048 290.765 157.606 284.848 154.521C283.995 154.645 283.167 154.801 282.329 155.002C281.202 156.419 284.584 160.678 284.652 162.997C284.754 166.486 281.854 168.648 279.688 170.999C282.098 171.574 284.323 172.033 286.326 173.587C287.245 174.3 287.468 174.743 287.604 175.835C286.491 178.988 281.535 180.401 278.922 182.252C279.322 183.758 279.688 185.567 280.45 186.922C281.415 188.639 285.842 192.209 285.699 193.901C285.546 195.705 284.295 197.599 283.979 199.426C283.754 200.729 283.992 202.356 284.078 203.683C285.912 203.93 287.656 204.034 289.106 205.305C290.651 208.11 293.425 222.225 293.296 225.635C291.765 226.365 289.696 225.62 288.137 225.248C287.574 224.628 286.897 223.893 286.129 223.532C285.365 223.172 285.024 223.329 284.299 223.606C283.308 224.494 282.97 225.855 282.524 227.07C280.76 225.802 279.319 224.132 277.955 222.457C278.251 220.874 278.737 218.865 277.674 217.475C277.07 216.686 276.553 216.579 275.641 216.503C274.938 216.925 274.626 217.093 274.321 217.9C273.997 218.758 274.773 219.931 275.154 220.683C274.549 222.591 273.951 224.415 273.041 226.208C271.143 226.219 269.216 225.962 267.325 225.793C265.343 226.929 263.392 227.58 261.18 228.138C260.909 228.229 260.89 228.207 260.693 228.35C259.399 229.287 259.197 231.623 258.912 233.074C259.677 233.813 260.514 234.504 261.309 235.211C258.941 238.183 256.323 241.188 253.629 243.864C250.358 243.979 246.871 243.623 243.668 244.38C242.297 244.705 240.918 245.303 239.56 245.718C238.526 245.01 237.441 244.263 236.163 244.187L235.81 244.502C235.447 248.465 236.316 252.923 236.785 256.887C232.94 260.442 227.363 267.167 223.083 269.523C221.87 270.19 220.376 270.491 219.048 270.841C216.678 273.983 213.714 276.955 212.978 280.908C208.572 283.081 203.987 281.846 199.923 283.57C197.481 284.606 199.037 286.396 198.309 288.2C197.783 288.697 197.331 288.854 196.611 288.961C195.274 289.159 194.258 288.186 193.23 287.454C192.085 288.13 190.891 288.685 189.688 289.25C189.646 296.862 186.609 293.459 183.99 296.811C183.217 297.801 183.047 299.229 183.115 300.452C183.243 302.749 184.68 304.759 185.011 307.009C185.42 309.792 184.455 312.684 185.459 315.41C187.005 319.602 190.286 322.847 190.89 327.495C191.593 332.903 186.971 335.277 184.116 339.004C180.478 343.755 183.517 351.702 184.262 357.158C184.402 358.19 184.608 359.66 184.23 360.662C183.243 363.272 178.372 366.155 176.452 368.681C176.855 371.226 178.775 376.597 178.399 378.736C176.491 380.547 172.301 378.397 170.306 379.587C168.544 380.639 167.246 386.828 166.612 388.923C165.169 389.776 162.978 391.212 161.915 392.496C161.274 393.27 160.874 394.143 160.171 394.899C157.35 395.925 152.377 390.894 148.929 390.685L148.527 390.664C147.966 390.256 141.824 383.377 141.186 382.444C140.97 381.193 141.715 380.302 141.968 379.104C139.703 374.502 137.889 369.494 135.345 365.06C134.047 362.798 131.812 361.193 130.825 358.733C128.623 353.245 128.42 347.163 125.876 341.789C124.496 338.875 122.539 336.217 120.821 333.492C119.674 331.672 118.607 329.806 117.62 327.895C116.632 325.983 115.728 324.033 114.908 322.044C112.473 316.085 113.531 310.431 110.944 304.968C106.296 295.156 99.2277 291.966 95.9141 280.515C94.5192 275.695 92.6825 270.483 92.0752 265.509C91.8162 263.388 92.4309 259.73 91.2054 258.004C90.9234 257.607 90.7074 257.178 90.4743 256.751C90.6136 255.573 91.8898 255.425 92.3054 254.253C92.0765 252.748 90.7911 251.541 89.8287 250.423C90.0737 249.65 90.3735 248.831 90.4837 248.028C90.7123 246.366 89.5506 245.238 88.5717 244.062C88.0249 239.975 87.1772 235.549 85.6587 231.707C84.9072 229.805 82.7161 228.135 82.6327 226.049C83.7118 224.472 86.2996 225.306 88.1045 224.915L88.428 224.842C91.3366 221.458 89.3112 220.837 90.3939 217.553C91.3293 214.717 93.2104 212.202 94.5329 209.529C92.3232 211.86 89.8906 214.488 89.2593 217.756C88.9743 219.23 89.4753 221.175 88.5991 222.452C86.9056 224.921 83.8896 222.465 81.7014 222.981C81.1429 223.112 80.8057 223.413 80.5458 223.917C79.4477 226.044 80.5196 229.481 81.1579 231.647C80.8484 232.666 80.533 233.739 80.0748 234.7C78.2297 238.573 69.2099 243.86 65.1949 245.185C60.6512 243.616 53.2094 240.677 50.1198 237.017C48.8126 235.468 47.8127 233.598 46.6585 231.93C44.924 229.423 42.7244 227.127 40.4313 225.123C40.8409 223.927 41.1837 222.629 41.9019 221.578C43.2959 222.436 44.7191 223.44 46.3727 223.657C47.4044 223.792 48.4065 223.91 49.4499 223.826C50.9901 223.702 56.7564 222.461 57.694 221.385C57.4603 220.888 57.0821 220.241 56.9811 219.703C56.8608 219.062 57.167 218.574 57.5359 218.082C59.3018 215.73 64.8473 213.521 67.7201 213.087C68.8282 213.567 69.7343 214.172 70.9337 214.46L71.2343 214.233C70.4927 213.201 69.3336 212.603 68.2766 211.937C64.6543 213.071 56.4051 213.344 54.2444 216.577C53.7241 217.356 53.1831 217.887 52.4608 218.48L52.1747 218.712C48.2623 218.385 44.1664 218.55 40.3277 217.773C38.2359 214.75 36.3549 211.573 34.2261 208.591C33.2388 208.034 32.2803 208.155 31.1869 208.063C30.2429 207.984 29.7569 207.777 29.1547 207.055C29.3909 206.027 30.6426 206.268 31.2437 205.313C30.9308 203.303 28.1831 202.026 26.731 200.776C26.117 200.247 25.7574 199.923 25.7063 199.109C25.7839 199.056 25.9955 198.898 26.1035 198.853C26.7299 198.591 27.6465 198.82 28.3385 198.649C30.0283 198.23 30.9758 197.062 32.8652 197.597C33.5569 198.1 33.6582 198.761 33.886 199.546C34.0406 200.08 34.162 200.017 34.6179 200.293C35.7477 200.337 36.7024 199.7 37.6657 199.182C38.958 196.778 39.9788 195.541 42.2239 193.962C44.8717 194.081 47.4484 192.648 49.9759 193.186C52.0778 193.634 54.4886 195.964 55.659 197.703L59.2705 198.814C59.487 198.565 59.6914 198.311 59.9025 198.058C61.0221 196.718 61.2281 195.137 62.1475 193.868C62.9542 192.756 64.751 193.555 65.8639 193.471C66.5154 193.421 66.5386 193.258 66.9282 192.774C67.3168 188.636 54.9473 177.583 54.369 175.534C54.6414 174.154 55.8512 173.293 56.839 172.368C58.2106 172.573 59.9008 173 61.256 172.689C61.7693 171.968 61.9429 171.76 62.0437 170.894C60.018 168.104 53.897 169.628 51.2725 167.007C50.4304 164.818 52.9266 163.665 53.0268 161.507C51.9899 159.025 48.5105 160.265 46.7117 158.673C46.2269 158.243 45.9581 157.668 45.9388 157.022C45.8813 155.127 47.7119 150.414 49.0562 149.096C49.8609 148.307 53.1122 146.824 54.2556 146.91C54.3734 146.918 54.4901 146.936 54.6073 146.949L54.6885 146.623L55.1898 147.156C56.3909 146.29 57.1689 144.894 58.3365 143.961C59.1307 143.327 60.3804 142.851 61.4068 143.081C63.6213 143.577 63.0383 146.608 64.1536 148.032C64.435 148.39 64.8389 148.655 65.3112 148.637C66.404 148.597 66.6003 148.165 67.2029 147.363C68.1819 147.246 68.2349 147.378 69.0734 147.929C70.095 147.664 70.2016 146.663 71.0164 146.177C72.1008 145.531 73.3955 145.522 74.5937 144.664L74.8899 144.448C75.8274 144.7 76.7544 145.071 77.6725 145.388C81.5226 143.356 84.7055 140.197 88.1149 137.5C87.2024 136.372 84.7059 134.025 84.5376 132.711C84.4652 132.148 84.5864 131.684 84.9624 131.251C86.9339 128.981 93.8277 129.549 96.7326 129.524L96.3218 126.282C98.815 122.466 101.027 118.26 104 114.805C104.008 114.752 104.018 114.7 104.023 114.646C104.178 112.95 104.584 111.499 105.103 109.876C104.336 108.114 103.699 105.75 104.124 103.829C105.12 99.32 110.978 98.9527 114.252 96.8327C115.491 96.0296 117.087 94.8062 117.399 93.2961C118.216 89.3491 120.154 84.0055 121.821 80.3148C123.269 80.0416 125.747 83.2929 127.923 83.0363L128.243 82.5736C127.71 81.5129 126.819 81.4035 125.953 80.6693C125.291 80.1072 125.269 79.7809 125.225 78.9847C125.67 77.6831 126.747 76.8748 127.736 75.9792C126.997 75.6979 125.817 75.3883 125.2 74.925C124.627 74.4961 124.616 74.1236 124.59 73.4604C125.064 72.8944 125.444 72.422 125.725 71.7352C124.259 68.9421 119.882 71.4253 117.18 70.2847C113.892 68.8963 113.008 65.5909 111.356 62.7875C110.611 61.5237 109.817 60.5304 109.256 59.1476C109.551 57.6255 110.261 55.382 109.98 53.8809C109.71 52.4328 108.469 51.4842 108.394 49.9262C109.526 47.062 113.459 48.3317 115.837 46.6302L116.145 46.4077C113.697 41.162 109.457 41.8335 105.346 39.2976C105.351 38.8966 108.489 36.9867 109.011 35.9065C109.002 34.982 108.912 34.8501 108.403 34.0673C107.297 33.8438 106.601 34.4305 105.663 34.9828C103.81 34.0859 102.183 32.6378 100.56 31.3817C100.392 30.9389 100.342 30.6246 100.438 30.1523C101.049 27.1348 103.972 23.1196 106.494 21.482C107.521 22.4901 108.597 23.705 109.82 24.4656C110.859 23.9272 109.702 21.5829 110.212 20.4474C110.819 20.3111 111.427 20.1443 112.037 20.0239C113.772 19.6814 115.281 17.9907 116.729 16.9634Z"/>
</mask>
<path d="M116.729 16.9634L119.736 17.9807C121.266 17.5107 122.645 17.1646 124.248 17.5057C134.355 19.6577 131.213 25.1124 134.836 28.048C138.074 30.6711 140.329 28.6329 143.15 32.8931C146.264 34.1228 149.021 33.1662 152.123 34.3387C153.53 33.9836 155.084 33.885 156.433 33.3516C158.774 32.4252 161.06 30.251 163.319 28.9799C165.103 27.9763 167.829 26.3313 169.936 26.9227C170.523 27.5261 170.545 27.6462 170.702 28.4809C171.162 29.0348 171.275 29.0561 171.93 29.2736C172.488 28.6136 172.424 26.5185 172.71 25.5266C174.603 24.7749 176.387 27.5257 178.115 27.6942C179.044 27.7846 179.69 27.4686 180.684 27.7525C182.086 29.301 180.839 30.3066 180.886 32.0266C180.903 32.6673 181.028 32.7084 181.488 33.0826C182.087 33.0739 182.697 33.037 183.28 33.1954C183.785 33.3323 183.768 33.5566 184.023 33.9867C184.037 34.2825 184.05 34.5166 183.944 34.7997C183.259 36.6217 181.132 38.5583 179.899 40.0614C175.616 45.2846 174.675 48.4237 167.963 51.2228C168.218 52.1225 168.439 52.9987 168.881 53.8296C169.044 53.9237 169.206 54.0201 169.366 54.1189C171.068 55.1653 172.174 56.8644 172.639 58.8077C171.93 59.0732 171.334 59.2254 170.874 59.8555L171 60.641C172.274 62.3859 173.563 61.6497 175.196 62.5517C175.504 62.7214 175.682 62.8542 175.779 63.1979C176.094 64.3047 175.373 65.5294 174.849 66.462C173.689 68.5253 174.936 71.1345 173.62 73.0822C172.285 75.0577 170.203 72.2289 168.452 72.4215C167.916 72.805 167.578 73.1602 167.182 73.6877L167.05 73.8663C165.867 74.3263 164.539 73.8265 163.306 73.7022C162.135 73.5844 161.519 73.866 160.615 74.6107C160.347 74.8321 160.317 74.7846 159.983 74.8092C159.792 74.1683 159.585 73.6786 159.229 73.1104L158.773 73.1358C158.65 73.3499 158.542 73.5316 158.505 73.78C158.359 74.7548 158.788 75.4992 159.148 76.3561C162.24 83.7141 167.525 82.4943 169.912 85.7835C171.077 87.3893 171.822 90.4515 171.528 92.4258C171.182 94.7457 169.951 95.8634 168.188 97.2572C168.412 97.5226 168.642 97.7823 168.878 98.0366C169.489 98.6912 174.395 102.89 174.962 103.12C175.061 103.16 175.754 103.171 175.868 103.145C176.85 102.927 177.129 102.204 178.293 102.247C179.842 103.341 180.48 105.422 181.1 107.127C181.908 106.55 182.613 106.018 183.571 105.71L183.928 106.079C183.876 106.584 183.809 107.019 183.975 107.512C184.101 107.885 184.286 107.886 184.607 108.063C184.719 107.999 184.83 107.933 184.943 107.871C186.389 107.075 186.444 108.646 187.531 108.994C188.126 109.184 188.884 109.074 189.551 109.284C189.788 110.247 189.103 111.011 188.783 111.953C188.926 112.221 189.044 112.35 189.306 112.51C191.14 113.622 191.049 111.836 192.475 111.585C193.533 111.399 196.561 113.117 197.443 113.759C197.994 114.16 198.316 114.389 198.384 115.098C198.656 117.961 195.779 119.041 194.347 120.992C192.846 123.036 193.723 125.032 191.344 127.964C192.991 129.926 194.498 131.463 196.683 132.85C200.005 134.958 213.558 140.916 217.222 141.477C218.328 141.646 219.454 141.353 220.53 141.112C220.599 141.168 220.667 141.225 220.737 141.281C223.307 143.298 226.803 149.486 229.562 150.37C230.018 149.81 230.328 149.55 230.962 149.205C232.207 149.008 233.274 149.737 234.36 150.278C235.146 149.436 236.159 148.041 237.277 147.691C239.514 146.992 239.1 148.516 240.578 149.335C241.738 149.253 242.662 148.568 243.66 148.032C244.663 147.493 245.165 147.368 246.241 147.696C246.815 148.575 246.684 149.975 246.732 151.006C248.583 152.256 250.431 153.569 252.491 154.454C255.792 155.872 260.259 156.152 263.615 154.801C264.37 155.188 265.179 155.64 266.008 155.842C268.09 156.348 269.576 155.868 271.341 154.755L275.972 157.909C277.627 157.02 279.096 155.812 280.589 154.678C280.556 154.635 280.522 154.592 280.491 154.547C278.033 150.988 280.772 150.442 280.972 147.901C281.069 146.672 278.97 144.967 278.139 144.145C277.883 142.435 277.559 140.742 277.23 139.045C278.017 137.032 279.908 131.146 281.84 130.242C282.317 130.018 282.584 130.104 283.047 130.294C285.594 131.341 284.291 134.302 285.472 135.982C286.144 136.939 287.238 137.065 287.784 138.256C287.949 140.764 286.87 141.28 285.922 143.248C284.954 145.259 286.325 147.871 287.075 149.781L286.919 149.676C288.117 150.734 289.439 152.131 290.888 152.826C293.549 154.104 300.124 154.359 302.845 153.146C303.866 152.692 305.295 151.221 306.321 151.151C307.319 151.083 308.445 152.269 309.592 152.304C313.559 152.426 311.7 151.68 313.434 150.117C314.79 149.835 316.054 150.406 317.381 150.647C319.083 150.957 320.737 150.132 322.065 149.139C323.316 148.204 326.43 145.507 326.531 143.866C326.559 143.403 326.442 143.426 326.157 143.113C324.571 142.664 323.722 142.954 322.23 143.473C320.371 142.503 318.017 142.36 316.319 141.204C315.599 140.713 315.329 140.271 315.136 139.437C315.217 138.609 315.426 138.022 316.001 137.401C316.979 136.346 318.769 135.549 320.234 135.562C321.067 135.569 321.711 136.192 322.29 136.715C323.397 136.446 324.507 136.182 325.597 135.862C327.633 135.267 330.603 132.616 331.625 130.778C331.427 130.428 331.271 130.082 331.122 129.711C331.645 127.869 332.485 127.382 334.071 126.507C336.119 125.377 336.227 122.857 338.501 121.963C340.207 121.291 341.904 122.328 343.172 121.869L343.397 121.241C343.102 120.667 342.81 120.092 342.52 119.514L342.77 118.819C344.025 117.796 345.091 117.908 346.612 117.928L347.634 116.669C348.612 116.297 353.319 115.82 354.14 116.354C354.631 116.672 355.033 117.712 355.681 117.837C356.534 118.003 356.679 116.967 358.268 117.588C361.193 116.283 362.368 111.651 365.337 110.293C366.56 110.724 367.059 111.805 368.129 112.544C368.769 112.277 369.348 112.089 370.032 111.95L370.495 112.353C370.386 112.68 370.266 112.949 370.302 113.301C370.334 113.616 370.934 113.925 371.191 114.116C371.111 114.829 370.64 115.313 370.068 115.758C369.915 115.879 369.763 116.003 369.614 116.135L369.384 116.345L369.348 116.304C370.161 117.349 371.066 118.824 372.185 119.514C372.712 119.484 373.295 119.411 373.81 119.528C374.49 119.683 374.518 120.005 374.836 120.565C374.486 121.722 373.396 122.129 372.889 123.248L373.138 123.895C374.965 125.225 375.436 123.905 377.282 123.723C378.236 124.35 378.699 125.584 379.362 126.493C380.907 128.617 382.529 127.1 384.593 127.544C385.474 127.733 385.868 128.279 386.295 129.022C385.643 130.555 383.446 132.528 382.123 133.541C383.853 136.272 384.858 140.321 386.037 143.363L385.824 143.248L386.11 143.682C385.937 144.035 385.611 144.308 385.341 144.591C383.498 144.757 382.34 142.813 380.899 141.822C379.073 141.973 378.493 144.065 376.767 144.452C374.764 143.593 375.979 142.29 375.065 140.852C374.993 140.739 374.913 140.632 374.832 140.522C373.504 142.722 370.921 143.427 369.304 145.328C367.96 146.906 367.059 149.4 365.984 151.206C364.697 153.38 363.059 155.436 361.587 157.498C362.991 159.375 362.524 163.004 362.404 165.263C362.355 166.154 361.225 167.443 360.593 168.054C360.67 170.008 361.048 173.065 359.833 174.689C359.825 174.777 359.833 174.865 359.813 174.951C359.547 176.061 357.873 177.254 357.004 177.926C357.128 178.086 357.248 178.249 357.366 178.414C358.058 179.384 358.505 180.289 358.3 181.494C358.413 181.941 358.433 182.371 358.332 182.823C357.733 185.566 355.129 191.4 352.736 192.845C351.967 192.443 351.098 191.978 350.245 191.815C349.304 191.636 348.326 192.19 347.626 192.769C343.977 195.78 351.496 199.436 350.965 202.684C350.764 203.926 349.267 204.773 348.318 205.437C349.098 206.519 350.056 208.862 349.955 210.166C349.396 211.003 348.889 211.158 348.012 211.607C346.785 212.239 346.62 213.684 345.61 214.631C345.755 214.841 345.892 215.055 346.004 215.282C346.652 216.559 347.215 218.376 346.721 219.769C346.479 220.454 345.908 221.255 345.216 221.534C344.765 221.715 344.741 221.582 344.335 221.394C343.554 220.215 343.57 218.635 343.136 217.285L343.047 217.025C342.363 217.046 341.289 217.176 340.673 216.844C337.539 215.149 339.237 211.468 338.332 208.942C338.287 208.819 338.235 208.7 338.187 208.58C338.183 208.522 338.183 208.465 338.175 208.408C338.066 207.828 337.539 207.27 337.306 206.704C336.336 204.347 335.258 201.325 334.638 198.851C334.288 197.46 335.044 196 334.505 194.752C333.942 194.321 333.85 194.235 333.113 194.155C330.852 195.999 331.347 201.593 330.059 204.296C329.733 204.987 329.234 205.672 328.458 205.879C327.645 206.096 326.659 205.838 325.943 205.438C324.322 204.532 320.632 197.862 320.17 195.873C319.997 195.119 320.339 194.434 320.785 193.83C323.453 190.209 331.335 185.05 335.016 181.361C335.873 180.504 335.129 179.706 336.002 178.84C337.805 177.053 340.48 175.883 341.764 173.592C342.134 172.926 342.387 172.238 342.174 171.488C341.184 171.582 339.756 172.96 338.794 173.459L338.585 173.564C333.093 173.266 326.7 172.791 321.501 174.714C320.95 173.783 319.796 173.321 318.854 172.899C315.003 173.922 308.755 174.785 304.921 173.276C304.341 173.048 304.301 172.974 304.068 172.412L305.404 170.635C300.439 160.19 297.058 167.969 291.496 163.185C287.849 160.048 290.765 157.606 284.848 154.521C283.995 154.645 283.167 154.801 282.329 155.002C281.202 156.419 284.584 160.678 284.652 162.997C284.754 166.486 281.854 168.648 279.688 170.999C282.098 171.574 284.323 172.033 286.326 173.587C287.245 174.3 287.468 174.743 287.604 175.835C286.491 178.988 281.535 180.401 278.922 182.252C279.322 183.758 279.688 185.567 280.45 186.922C281.415 188.639 285.842 192.209 285.699 193.901C285.546 195.705 284.295 197.599 283.979 199.426C283.754 200.729 283.992 202.356 284.078 203.683C285.912 203.93 287.656 204.034 289.106 205.305C290.651 208.11 293.425 222.225 293.296 225.635C291.765 226.365 289.696 225.62 288.137 225.248C287.574 224.628 286.897 223.893 286.129 223.532C285.365 223.172 285.024 223.329 284.299 223.606C283.308 224.494 282.97 225.855 282.524 227.07C280.76 225.802 279.319 224.132 277.955 222.457C278.251 220.874 278.737 218.865 277.674 217.475C277.07 216.686 276.553 216.579 275.641 216.503C274.938 216.925 274.626 217.093 274.321 217.9C273.997 218.758 274.773 219.931 275.154 220.683C274.549 222.591 273.951 224.415 273.041 226.208C271.143 226.219 269.216 225.962 267.325 225.793C265.343 226.929 263.392 227.58 261.18 228.138C260.909 228.229 260.89 228.207 260.693 228.35C259.399 229.287 259.197 231.623 258.912 233.074C259.677 233.813 260.514 234.504 261.309 235.211C258.941 238.183 256.323 241.188 253.629 243.864C250.358 243.979 246.871 243.623 243.668 244.38C242.297 244.705 240.918 245.303 239.56 245.718C238.526 245.01 237.441 244.263 236.163 244.187L235.81 244.502C235.447 248.465 236.316 252.923 236.785 256.887C232.94 260.442 227.363 267.167 223.083 269.523C221.87 270.19 220.376 270.491 219.048 270.841C216.678 273.983 213.714 276.955 212.978 280.908C208.572 283.081 203.987 281.846 199.923 283.57C197.481 284.606 199.037 286.396 198.309 288.2C197.783 288.697 197.331 288.854 196.611 288.961C195.274 289.159 194.258 288.186 193.23 287.454C192.085 288.13 190.891 288.685 189.688 289.25C189.646 296.862 186.609 293.459 183.99 296.811C183.217 297.801 183.047 299.229 183.115 300.452C183.243 302.749 184.68 304.759 185.011 307.009C185.42 309.792 184.455 312.684 185.459 315.41C187.005 319.602 190.286 322.847 190.89 327.495C191.593 332.903 186.971 335.277 184.116 339.004C180.478 343.755 183.517 351.702 184.262 357.158C184.402 358.19 184.608 359.66 184.23 360.662C183.243 363.272 178.372 366.155 176.452 368.681C176.855 371.226 178.775 376.597 178.399 378.736C176.491 380.547 172.301 378.397 170.306 379.587C168.544 380.639 167.246 386.828 166.612 388.923C165.169 389.776 162.978 391.212 161.915 392.496C161.274 393.27 160.874 394.143 160.171 394.899C157.35 395.925 152.377 390.894 148.929 390.685L148.527 390.664C147.966 390.256 141.824 383.377 141.186 382.444C140.97 381.193 141.715 380.302 141.968 379.104C139.703 374.502 137.889 369.494 135.345 365.06C134.047 362.798 131.812 361.193 130.825 358.733C128.623 353.245 128.42 347.163 125.876 341.789C124.496 338.875 122.539 336.217 120.821 333.492C119.674 331.672 118.607 329.806 117.62 327.895C116.632 325.983 115.728 324.033 114.908 322.044C112.473 316.085 113.531 310.431 110.944 304.968C106.296 295.156 99.2277 291.966 95.9141 280.515C94.5192 275.695 92.6825 270.483 92.0752 265.509C91.8162 263.388 92.4309 259.73 91.2054 258.004C90.9234 257.607 90.7074 257.178 90.4743 256.751C90.6136 255.573 91.8898 255.425 92.3054 254.253C92.0765 252.748 90.7911 251.541 89.8287 250.423C90.0737 249.65 90.3735 248.831 90.4837 248.028C90.7123 246.366 89.5506 245.238 88.5717 244.062C88.0249 239.975 87.1772 235.549 85.6587 231.707C84.9072 229.805 82.7161 228.135 82.6327 226.049C83.7118 224.472 86.2996 225.306 88.1045 224.915L88.428 224.842C91.3366 221.458 89.3112 220.837 90.3939 217.553C91.3293 214.717 93.2104 212.202 94.5329 209.529C92.3232 211.86 89.8906 214.488 89.2593 217.756C88.9743 219.23 89.4753 221.175 88.5991 222.452C86.9056 224.921 83.8896 222.465 81.7014 222.981C81.1429 223.112 80.8057 223.413 80.5458 223.917C79.4477 226.044 80.5196 229.481 81.1579 231.647C80.8484 232.666 80.533 233.739 80.0748 234.7C78.2297 238.573 69.2099 243.86 65.1949 245.185C60.6512 243.616 53.2094 240.677 50.1198 237.017C48.8126 235.468 47.8127 233.598 46.6585 231.93C44.924 229.423 42.7244 227.127 40.4313 225.123C40.8409 223.927 41.1837 222.629 41.9019 221.578C43.2959 222.436 44.7191 223.44 46.3727 223.657C47.4044 223.792 48.4065 223.91 49.4499 223.826C50.9901 223.702 56.7564 222.461 57.694 221.385C57.4603 220.888 57.0821 220.241 56.9811 219.703C56.8608 219.062 57.167 218.574 57.5359 218.082C59.3018 215.73 64.8473 213.521 67.7201 213.087C68.8282 213.567 69.7343 214.172 70.9337 214.46L71.2343 214.233C70.4927 213.201 69.3336 212.603 68.2766 211.937C64.6543 213.071 56.4051 213.344 54.2444 216.577C53.7241 217.356 53.1831 217.887 52.4608 218.48L52.1747 218.712C48.2623 218.385 44.1664 218.55 40.3277 217.773C38.2359 214.75 36.3549 211.573 34.2261 208.591C33.2388 208.034 32.2803 208.155 31.1869 208.063C30.2429 207.984 29.7569 207.777 29.1547 207.055C29.3909 206.027 30.6426 206.268 31.2437 205.313C30.9308 203.303 28.1831 202.026 26.731 200.776C26.117 200.247 25.7574 199.923 25.7063 199.109C25.7839 199.056 25.9955 198.898 26.1035 198.853C26.7299 198.591 27.6465 198.82 28.3385 198.649C30.0283 198.23 30.9758 197.062 32.8652 197.597C33.5569 198.1 33.6582 198.761 33.886 199.546C34.0406 200.08 34.162 200.017 34.6179 200.293C35.7477 200.337 36.7024 199.7 37.6657 199.182C38.958 196.778 39.9788 195.541 42.2239 193.962C44.8717 194.081 47.4484 192.648 49.9759 193.186C52.0778 193.634 54.4886 195.964 55.659 197.703L59.2705 198.814C59.487 198.565 59.6914 198.311 59.9025 198.058C61.0221 196.718 61.2281 195.137 62.1475 193.868C62.9542 192.756 64.751 193.555 65.8639 193.471C66.5154 193.421 66.5386 193.258 66.9282 192.774C67.3168 188.636 54.9473 177.583 54.369 175.534C54.6414 174.154 55.8512 173.293 56.839 172.368C58.2106 172.573 59.9008 173 61.256 172.689C61.7693 171.968 61.9429 171.76 62.0437 170.894C60.018 168.104 53.897 169.628 51.2725 167.007C50.4304 164.818 52.9266 163.665 53.0268 161.507C51.9899 159.025 48.5105 160.265 46.7117 158.673C46.2269 158.243 45.9581 157.668 45.9388 157.022C45.8813 155.127 47.7119 150.414 49.0562 149.096C49.8609 148.307 53.1122 146.824 54.2556 146.91C54.3734 146.918 54.4901 146.936 54.6073 146.949L54.6885 146.623L55.1898 147.156C56.3909 146.29 57.1689 144.894 58.3365 143.961C59.1307 143.327 60.3804 142.851 61.4068 143.081C63.6213 143.577 63.0383 146.608 64.1536 148.032C64.435 148.39 64.8389 148.655 65.3112 148.637C66.404 148.597 66.6003 148.165 67.2029 147.363C68.1819 147.246 68.2349 147.378 69.0734 147.929C70.095 147.664 70.2016 146.663 71.0164 146.177C72.1008 145.531 73.3955 145.522 74.5937 144.664L74.8899 144.448C75.8274 144.7 76.7544 145.071 77.6725 145.388C81.5226 143.356 84.7055 140.197 88.1149 137.5C87.2024 136.372 84.7059 134.025 84.5376 132.711C84.4652 132.148 84.5864 131.684 84.9624 131.251C86.9339 128.981 93.8277 129.549 96.7326 129.524L96.3218 126.282C98.815 122.466 101.027 118.26 104 114.805C104.008 114.752 104.018 114.7 104.023 114.646C104.178 112.95 104.584 111.499 105.103 109.876C104.336 108.114 103.699 105.75 104.124 103.829C105.12 99.32 110.978 98.9527 114.252 96.8327C115.491 96.0296 117.087 94.8062 117.399 93.2961C118.216 89.3491 120.154 84.0055 121.821 80.3148C123.269 80.0416 125.747 83.2929 127.923 83.0363L128.243 82.5736C127.71 81.5129 126.819 81.4035 125.953 80.6693C125.291 80.1072 125.269 79.7809 125.225 78.9847C125.67 77.6831 126.747 76.8748 127.736 75.9792C126.997 75.6979 125.817 75.3883 125.2 74.925C124.627 74.4961 124.616 74.1236 124.59 73.4604C125.064 72.8944 125.444 72.422 125.725 71.7352C124.259 68.9421 119.882 71.4253 117.18 70.2847C113.892 68.8963 113.008 65.5909 111.356 62.7875C110.611 61.5237 109.817 60.5304 109.256 59.1476C109.551 57.6255 110.261 55.382 109.98 53.8809C109.71 52.4328 108.469 51.4842 108.394 49.9262C109.526 47.062 113.459 48.3317 115.837 46.6302L116.145 46.4077C113.697 41.162 109.457 41.8335 105.346 39.2976C105.351 38.8966 108.489 36.9867 109.011 35.9065C109.002 34.982 108.912 34.8501 108.403 34.0673C107.297 33.8438 106.601 34.4305 105.663 34.9828C103.81 34.0859 102.183 32.6378 100.56 31.3817C100.392 30.9389 100.342 30.6246 100.438 30.1523C101.049 27.1348 103.972 23.1196 106.494 21.482C107.521 22.4901 108.597 23.705 109.82 24.4656C110.859 23.9272 109.702 21.5829 110.212 20.4474C110.819 20.3111 111.427 20.1443 112.037 20.0239C113.772 19.6814 115.281 17.9907 116.729 16.9634Z" fill="white" fill-opacity="0.1" stroke="white" stroke-width="1.40136" mask="url(#path-1-inside-1_3_2892)"/>
</svg>
