<svg width="72" height="26" viewBox="0 0 72 26" fill="none" xmlns="http://www.w3.org/2000/svg">
<mask id="mask0_1_2154" style="mask-type:luminance" maskUnits="userSpaceOnUse" x="0" y="0" width="72" height="26">
<path d="M72 0.770699H0V25.2293H72V0.770699Z" fill="white"/>
</mask>
<g mask="url(#mask0_1_2154)">
<path d="M0.760254 7.79239H4.42629V20.4357H0.760254V7.79239Z" fill="#01295C"/>
<path d="M14.8082 7.60489C16.3749 7.60489 17.6362 8.07491 18.5919 9.01493C19.5632 9.95495 20.0489 11.3493 20.0489 13.198V20.4363H16.3828V13.7621C16.3828 12.7594 16.1635 12.0152 15.7248 11.5295C15.286 11.0281 14.6516 10.7775 13.8213 10.7775C12.8969 10.7775 12.1605 11.0673 11.6122 11.647C11.0639 12.211 10.7896 13.057 10.7896 14.1851V20.4363H7.1236V7.79288H10.6252V9.27342C11.1108 8.74075 11.714 8.3334 12.4346 8.0514C13.1554 7.75372 13.9466 7.60489 14.8082 7.60489Z" fill="#01295C"/>
<path d="M35.683 2.9986V20.4362H32.1815V18.979C31.2728 20.0757 29.9568 20.624 28.2334 20.624C27.0427 20.624 25.9617 20.3577 24.9903 19.8252C24.0346 19.2924 23.2825 18.5325 22.7342 17.5455C22.1859 16.5586 21.9118 15.4147 21.9118 14.1144C21.9118 12.814 22.1859 11.6703 22.7342 10.6833C23.2825 9.69626 24.0346 8.93641 24.9903 8.40373C25.9617 7.87105 27.0427 7.60472 28.2334 7.60472C29.8471 7.60472 31.1084 8.1139 32.017 9.13225V2.9986H35.683ZM28.868 17.6161C29.7923 17.6161 30.56 17.3027 31.171 16.676C31.782 16.0336 32.0875 15.1797 32.0875 14.1144C32.0875 13.049 31.782 12.203 31.171 11.5763C30.56 10.934 29.7923 10.6128 28.868 10.6128C27.9278 10.6128 27.1523 10.934 26.5413 11.5763C25.9303 12.203 25.6249 13.049 25.6249 14.1144C25.6249 15.1797 25.9303 16.0336 26.5413 16.676C27.1523 17.3027 27.9278 17.6161 28.868 17.6161Z" fill="#01295C"/>
<path d="M38.3712 7.79239H42.0372V20.4357H38.3712V7.79239Z" fill="#01295C"/>
<path d="M2.55251 0.84713L5.16026 3.45489L2.55251 6.06264L-0.0552368 3.45489L2.55251 0.84713Z" fill="#01295C"/>
<path d="M40.2253 0.84713L42.8331 3.45489L40.2253 6.06264L37.6176 3.45489L40.2253 0.84713Z" fill="#01295C"/>
<path d="M45.5983 10.5923H43.8133V7.81843H45.5983V6.32297C45.5983 5.10088 45.9198 4.18431 46.5631 3.57326C47.2063 2.94614 48.1469 2.63257 49.3851 2.63257H51.7007V5.4064H49.168V7.81843H51.7007V10.5923H49.168V20.4816H45.5983V10.5923Z" fill="#FF681E"/>
<path d="M57.2322 20.4816C56.01 20.4816 55.1095 20.1841 54.5306 19.5891C53.9679 18.994 53.6864 18.1339 53.6864 17.0082V2.63257H57.2562V17.7077H58.8481V20.4816H57.2322Z" fill="#FF681E"/>
<path d="M68.5897 7.81867H71.9184L67.0461 22.4355C66.7245 23.4165 66.2662 24.1401 65.6712 24.6064C65.0923 25.0728 64.2561 25.3059 63.1627 25.3059H60.9437V22.5321H63.3316L63.7657 21.1331L59.3276 7.81867H62.8733L64.7306 13.7281L65.6471 17.3944H65.7918L66.7326 13.7281L68.5897 7.81867Z" fill="#FF681E"/>
</g>
</svg>
